HIERARCHY
ROOT Hips
{
	OFFSET 0.00000 0.00000 0.00000
	CHANNELS 6 Xposition Yposition Zposition Yrotation Zrotation Xrotation 
	JOINT Lumbar
	{
		OFFSET 0 0 0
		CHANNELS 3 Zrotation Xrotation Yrotation
		JOINT Neck
		{
			OFFSET 0.00 0.2701 0.00
			CHANNELS 3 Zrotation Xrotation Yrotation
			End Site
			{
				OFFSET 0.00 0.1379 0.00
			}
		}
		JOINT RightShoulder
		{
			OFFSET 0.0119 0.2289 0.1181
			CHANNELS 3 Zrotation Xrotation Yrotation
			JOINT RightElbow
			{
				OFFSET 0.00 -0.1475 0.00
				CHANNELS 2 Zrotation Yrotation
				JOINT RightWrist
				{
					OFFSET 0.00 -0.1605 0.00
					CHANNELS 2 Zrotation Xrotation
					End Site
					{
						OFFSET 0.0040 -0.1068 0.0006
					}
				}
			}
		}
		JOINT LeftShoulder
		{
			OFFSET 0.0119 0.2289 -0.1181
			CHANNELS 3 Zrotation Xrotation Yrotation
			JOINT LeftElbow
			{
				OFFSET 0.00 -0.1475 0.00
				CHANNELS 2 Zrotation Yrotation
				JOINT LeftWrist
				{
					OFFSET 0.00 -0.1605 0.00
					CHANNELS 2 Zrotation Xrotation
					End Site
					{
						OFFSET 0.0040 -0.1068 -0.0006
					}
				}
			}
		}
	}
	JOINT RightHip
	{
		OFFSET 0.0316 -0.0424 0.0458
		CHANNELS 3 Zrotation Xrotation Yrotation
		JOINT RightKnee
		{
			OFFSET 0.00 -0.2438 0.00
			CHANNELS 1 Zrotation
			JOINT RightAnkle
			{
				OFFSET 0.00 -0.2449 0.00
				CHANNELS 3 Zrotation Xrotation Yrotation
				End Site
				{
					OFFSET 0.1237 -0.0542 0.0051
				}
			}
		}
	}
	JOINT LeftHip
	{
		OFFSET 0.0316 -0.0424 -0.0458
		CHANNELS 3 Zrotation Xrotation Yrotation
		JOINT LeftKnee
		{
			OFFSET 0.00 -0.2438 0.00
			CHANNELS 1 Zrotation
			JOINT LeftAnkle
			{
				OFFSET 0.00 -0.2449 0.00
				CHANNELS 3 Zrotation Xrotation Yrotation
				End Site
				{
					OFFSET 0.1237 -0.0542 -0.0051
				}
			}
		}
	}
}
MOTION
Frames: 23
Frame Time: 0.02
0 0.57926 0 185.98369 0 -2.44431 5.55651 5.04755 1.22045 -18.15785 -9.11197 -5.68474 36.56174 0.09841 9.89609 12.52135 83.59821 -3.77841 -5.77526 41.92811 17.65685 -20.30338 20.83981 -89.98707 -12.38685 6.00793 -5.05619 6.94834 5.43844 -4.26411 2.13038 -2.81514 -4.53845 -0.2723 0.9761 -20.27206 -7.48156 4.72821 3.09703 4.06881
4e-05 0.57924 -0.00045 186.25937 0 -2.40473 5.57542 5.06351 1.15985 -18.32083 -8.99469 -5.63069 36.7084 0.20021 10.38239 12.50954 83.53546 -3.76062 -5.87864 41.70925 17.57011 -20.39108 20.93276 -90.19858 -12.25731 6.34228 -5.08055 6.96899 5.23362 -4.23644 2.14915 -2.84976 -4.56859 -0.1775 0.9529 -20.46918 -7.59321 4.7299 3.08753 4.04286
7e-05 0.57921 -0.0009 186.53316 0 -2.36536 5.59394 5.07971 1.1001 -18.48299 -8.87713 -5.57575 36.84744 0.29911 10.85894 12.49561 83.47233 -3.74195 -5.97938 41.48255 17.48423 -20.4708 21.01948 -90.40368 -12.12579 6.67072 -5.10498 6.98975 5.03388 -4.20888 2.16816 -2.88345 -4.60215 -0.08328 0.92992 -20.66476 -7.70457 4.73212 3.07811 4.01694
0.0001 0.57919 -0.00135 186.80195 0 -2.32596 5.61125 5.09613 1.04342 -18.6432 -8.75735 -5.51656 36.96465 0.38799 11.31143 12.47573 83.40798 -3.71985 -6.07149 41.23212 17.4003 -20.53566 21.0887 -90.59071 -11.98667 6.97978 -5.12931 7.00998 4.8354 -4.18189 2.18816 -2.91732 -4.63255 0.00892 0.90721 -20.85739 -7.81413 4.73519 3.06935 3.99213
0.00015 0.57917 -0.00181 187.0971 0 -2.28612 5.63517 5.11029 0.97081 -18.81342 -8.64936 -5.47972 37.20617 0.53065 11.90383 12.49055 83.35117 -3.71623 -6.21043 41.1192 17.3053 -20.69934 21.25846 -90.88009 -11.88966 7.39275 -5.15343 7.03161 4.61007 -4.15234 2.2027 -2.95446 -4.65944 0.11112 0.8826 -21.06718 -7.9312 4.73221 3.05758 3.96295
0.00014 0.57913 -0.00225 187.33626 0 -2.24765 5.64492 5.12994 0.93174 -18.96252 -8.51651 -5.39577 37.17866 0.55894 12.19123 12.42982 83.27772 -3.67334 -6.24944 40.70755 17.23429 -20.64012 21.21011 -90.94821 -11.70244 7.58468 -5.17845 7.05118 4.45539 -4.12792 2.22893 -2.9818 -4.70739 0.19252 0.86236 -21.23946 -8.03363 4.7431 3.05185 3.94202
-5e-05 0.57902 -0.00266 187.42115 0 -2.20828 5.61584 5.1595 0.98946 -19.05368 -8.30938 -5.17368 36.42892 0.26493 11.68075 12.16915 83.16038 -3.51863 -6.00909 39.49559 17.2257 -20.04522 20.58099 -90.42274 -11.2629 7.15599 -5.20252 7.05704 4.37518 -4.12046 2.28814 -3.00756 -4.69332 0.21219 0.85123 -21.318 -8.08449 4.78455 3.06624 3.95334
-0.00031 0.57889 -0.00305 187.4495 0 -2.1709 5.57241 5.19541 1.08036 -19.12366 -8.07821 -4.9054 35.40273 -0.14334 10.85114 11.83046 83.02535 -3.32483 -5.66801 37.976 17.24193 -19.20254 19.72762 -89.67044 -10.73304 6.5056 -5.22805 7.0619 4.38253 -4.11783 2.35912 -3.02007 -4.71674 0.21131 0.84495 -21.35726 -8.12204 4.84115 3.08622 3.97162
-0.00055 0.57878 -0.00345 187.50362 0 -2.13585 5.53524 5.23212 1.1534 -19.20308 -7.86114 -4.66306 34.4888 -0.49597 10.14109 11.52126 82.8974 -3.1508 -5.37517 36.57973 17.2494 -18.42989 18.96125 -89.00944 -10.24516 5.96261 -5.25529 7.0729 4.43568 -4.11093 2.42429 -3.02044 -4.80863 0.22307 0.83851 -21.4078 -8.1738 4.89637 3.10132 3.98011
-0.00075 0.57866 -0.00387 187.55757 0 -2.08798 5.499 5.25405 1.23807 -19.28288 -7.62971 -4.39938 33.63227 -0.86566 9.54871 11.23666 82.77506 -2.96795 -5.07279 35.25385 17.24662 -17.86741 18.25544 -88.39681 -9.75069 5.39132 -5.27286 7.06144 4.15164 -4.11208 2.49127 -3.09213 -4.56361 0.22234 0.8239 -21.48482 -8.19373 4.92977 3.12589 4.01509
-0.00104 0.57853 -0.00425 187.59821 0 -2.06623 5.45765 5.3073 1.30652 -19.35733 -7.42372 -4.16977 32.58943 -1.22519 8.62272 10.88306 82.63487 -2.79468 -4.76532 33.70749 17.27064 -16.7702 17.37328 -87.63132 -9.2519 4.82665 -5.31044 7.09459 4.56054 -4.09852 2.55742 -3.01878 -4.99914 0.24092 0.8269 -21.49892 -8.27352 5.01044 3.13257 3.99841
-0.00153 0.57842 -0.00453 187.61783 0 -2.12523 5.40338 5.45399 1.32142 -19.4184 -7.28324 -4.04022 31.10908 -1.54367 6.95689 10.35188 82.46603 -2.65334 -4.47759 31.63468 17.36633 -14.5883 16.03344 -86.4851 -8.73403 4.33205 -5.40733 7.26811 7.1254 -4.03492 2.61697 -2.48986 -7.56781 0.33381 0.88217 -21.33526 -8.5505 5.23345 3.08429 3.82126
-0.0021 0.5783 -0.00478 187.6255 0 -2.20887 5.34484 5.63053 1.31917 -19.47555 -7.17126 -3.94749 29.44944 -1.84498 4.94339 9.75547 82.27653 -2.52392 -4.18685 29.34995 17.48747 -11.81913 14.52932 -85.19635 -8.22054 3.85264 -5.52359 7.48362 10.33914 -3.95762 2.67539 -1.82537 -10.77459 0.44406 0.95416 -21.11196 -8.88322 5.50076 3.01864 3.59479
-0.00265 0.57819 -0.00505 187.63759 0 -2.27508 5.28986 5.78764 1.32498 -19.53699 -7.05308 -3.84148 27.86525 -2.14467 3.02599 9.19244 82.08611 -2.39153 -3.89106 27.15671 17.59447 -9.09623 13.11627 -83.98108 -7.72404 3.36734 -5.62793 7.6685 13.07786 -3.89232 2.73544 -1.26237 -13.51206 0.53565 1.01524 -20.92524 -9.17116 5.7374 2.96368 3.40164
-0.00315 0.57806 -0.00531 187.6526 0 -2.36716 5.22777 5.96915 1.33006 -19.58707 -6.90518 -3.71953 26.29516 -2.4891 1.37379 8.60932 81.93965 -2.24677 -3.61745 24.97028 17.7131 -7.27884 11.62319 -82.71774 -7.14361 2.86827 -5.74498 7.90116 16.56441 -3.80387 2.79177 -0.5344 -16.99292 0.67122 1.09017 -20.69812 -9.5392 6.01841 2.89702 3.16315
-0.00377 0.57796 -0.00557 187.65865 0 -2.41184 5.17937 6.10758 1.3331 -19.6602 -6.82673 -3.63979 24.65885 -2.73356 -0.92801 8.05557 81.69565 -2.13194 -3.29997 22.72686 17.81334 -3.46082 10.26436 -81.52786 -6.74102 2.40657 -5.84075 8.04545 18.666 -3.75899 2.85471 -0.11318 -19.09521 0.72059 1.14055 -20.54028 -9.75576 6.21812 2.85064 3.00673
-0.00471 0.57788 -0.00585 187.64997 0 -2.31387 5.17228 6.11358 1.32677 -19.79737 -6.92937 -3.67083 22.8677 -2.71621 -4.77041 7.582 81.20071 -2.09024 -2.84794 20.35046 17.85556 5.91189 9.28644 -80.53762 -6.82184 2.02575 -5.86776 7.92547 16.61296 -3.84956 2.94219 -0.61426 -17.07175 0.51907 1.11555 -20.59914 -9.52382 6.17548 2.86343 3.09383
-0.00576 0.57782 -0.00613 187.63173 0 -2.16841 5.17863 6.07639 1.32038 -19.95788 -7.10175 -3.74274 21.02122 -2.59661 -9.27999 7.14372 80.60763 -2.07986 -2.35518 17.93148 17.87855 17.23527 8.45601 -79.63241 -7.08288 1.68586 -5.87354 7.71695 13.17448 -3.98239 3.0352 -1.42115 -13.66838 0.23203 1.06586 -20.7281 -9.14078 6.05067 2.89737 3.26435
-0.00675 0.57775 -0.00641 187.61342 0 -2.04845 5.1774 6.06294 1.31895 -20.10848 -7.24474 -3.794 19.21086 -2.51639 -13.59829 6.70081 80.04863 -2.05943 -1.89066 15.55059 17.91073 27.56139 7.57893 -78.717 -7.26654 1.34153 -5.89265 7.55558 10.48335 -4.08795 3.12169 -2.06022 -11.00437 -0.01025 1.02982 -20.81791 -8.83773 5.96802 2.92238 3.39341
-0.00778 0.57767 -0.00667 187.61298 0 -1.91283 5.18263 6.03297 1.29578 -20.25688 -7.37893 -3.85512 17.34449 -2.46467 -17.4743 6.20763 79.52625 -2.021 -1.38421 13.0798 17.94145 38.41171 6.61006 -77.68487 -7.43239 0.94088 -5.89745 7.36662 7.32126 -4.2265 3.22505 -2.81544 -7.89178 -0.27729 0.98427 -20.93585 -8.48841 5.86675 2.94407 3.53553
-0.00875 0.57762 -0.00697 187.5736 0 -1.79822 5.17713 6.02701 1.31852 -20.41432 -7.54768 -3.90514 15.58809 -2.33067 -22.40295 5.82813 78.9134 -2.02825 -0.95634 10.79294 17.97088 48.58071 5.86941 -76.90727 -7.67662 0.66321 -5.92605 7.21341 4.79843 -4.30727 3.29461 -3.40423 -5.3737 -0.51267 0.95223 -21.01334 -8.19938 5.78398 2.97771 3.67116
-0.00951 0.57764 -0.0074 187.42634 0 -1.75322 5.14316 6.09588 1.46462 -20.60078 -7.79452 -3.9126 14.11674 -1.98425 -30.2611 5.7567 77.9974 -2.14534 -0.74844 8.99289 17.99752 56.7577 5.72679 -76.90862 -8.10409 0.74902 -6.03154 7.18171 4.4127 -4.21205 3.26933 -3.44975 -4.86476 -0.64448 0.96493 -20.95698 -8.11021 5.77394 3.04144 3.76683
-0.01019 0.57768 -0.00788 187.24109 0 -1.7309 5.09701 6.19071 1.65766 -20.79359 -8.0737 -3.90766 12.76593 -1.56052 -39.11537 5.79832 77.00718 -2.30825 -0.62243 7.38713 18.02481 64.09962 5.80961 -77.14889 -8.60085 0.95091 -6.16043 7.18863 4.70875 -4.05846 3.20993 -3.31956 -4.99314 -0.74021 0.99152 -20.85929 -8.08807 5.78496 3.11628 3.85387
